# xmcd CD database file
#
# Track frame offsets:
#	150
#	18478
#	34159
#	54942
#	72048
#	110016
#	128413
#	145799
#	176963
#	192129
#	208256
#	230937
#	242382
#	255488
#	276917
#
# Disc length: 3840 seconds
#
# Revision: 1
# Processed by: cddbd v1.5.2PL0 Copyright (c) Steve Scherf et al.
# Submitted via: CDex 1.75
#
DISCID=d80efe0f
DTITLE=Smoke Wagon Blues Band - It Ain't Easy
DYEAR=2012
DGENRE=Blues
TTITLE0=Smoke Wagon Blues Band - Devil Got My Woman
TTITLE1=Smoke Wagon Blues Band - Hold On To You
TTITLE2=Smoke Wagon Blues Band - Josephine
TTITLE3=Smoke Wagon Blues Band - Hen House Hoppin
TTITLE4=Smoke Wagon Blues Band - Downhearted Blues
TTITLE5=Smoke Wagon Blues Band - Drinking Hard and Steady
TTITLE6=Smoke Wagon Blues Band - It Ain't Easy
TTITLE7=Smoke Wagon Blues Band - That Voodoo
TTITLE8=Smoke Wagon Blues Band - Tongue Tied
TTITLE9=Smoke Wagon Blues Band - Damaged Time
TTITLE10=Smoke Wagon Blues Band - Fine Fiurred Mama 
TTITLE11=Smoke Wagon Blues Band - Ain't No Use
TTITLE12=Smoke Wagon Blues Band - Where Did I Go Wrong
TTITLE13=Smoke Wagon Blues Band - Some Other Fool 
TTITLE14=Smoke Wagon Blues Band - Drink by Sink
EXTD=YEAR: 2012
EXTT0=
EXTT1=
EXTT2=
EXTT3=
EXTT4=
EXTT5=
EXTT6=
EXTT7=
EXTT8=
EXTT9=
EXTT10=
EXTT11=
EXTT12=
EXTT13=
EXTT14=
PLAYORDER=
